<svg id="f9afe896-552f-4a02-8128-a4b9c53d75d5" data-name="Layer 1" xmlns="http://www.w3.org/2000/svg" viewBox="0 0 135.96 75.46"><defs><style>.a6d12838-0630-481a-82f8-639a05d0c2f1{fill:#c10230;}</style></defs><path d="M44.23,17l3.42-5.31L44.23,6.48H40.51L44,11.67,40.51,17ZM19.42,21.41c-1.49,0-3,.05-4.46,0-.72,0-1,.26-1.13.9-1.05,3.56-2.14,7.1-3.29,10.9-.2-.59-.34-1-.45-1.31-1-3.22-1.94-6.44-2.94-9.65-.09-.3-.36-.77-.56-.78-1.86-.06-3.73,0-5.61,0V39.77c1.22,0,2.37,0,3.52,0,.63,0,.8-.24.78-.82-.06-1.81-.1-3.63-.12-5.45,0-2.12,0-4.24,0-6.36l.15,0Q7.14,33.43,9,39.77c.85,0,1.57,0,2.3,0a.84.84,0,0,0,1-.76c.26-1.12.63-2.22.95-3.33l2.43-8.5.16,0V39.76c1.3,0,2.49,0,3.67,0,.57,0,.64-.29.64-.75q0-8.43,0-16.86C20.17,21.61,20,21.4,19.42,21.41Zm64.2,8V33.1h5.21a3.47,3.47,0,0,1-3.24,2.76c-4.08.31-6.26-2.62-5.78-6.4a4.63,4.63,0,0,1,3.62-4,4.37,4.37,0,0,1,4.89,1.73,1.27,1.27,0,0,0,.78.47c1.55,0,3.1,0,4.73,0-.93-4.47-6.3-7.4-11.3-6.32a9.32,9.32,0,0,0-7.3,11.34,9.76,9.76,0,0,0,12.1,7.1c4.57-1.13,8-6.27,7-10.41ZM129.71,29c0-2.25,0-4.5,0-6.74,0-.28-.28-.77-.45-.78-1.34-.06-2.68,0-4.06,0V32.52c-.28-.43-.44-.66-.59-.91-2-3.17-3.91-6.35-5.9-9.51a1.37,1.37,0,0,0-.86-.65c-1.14-.08-2.3,0-3.52,0V39.7h4.34V29.22a69.68,69.68,0,0,1,5.22,8c1.11,2.12,2.53,2.91,4.84,2.6.83-.12,1-.33,1-1.11C129.69,35.46,129.71,32.22,129.71,29ZM60.84,22.66c0,1.59,0,3.18,0,4.76,0,.28-.27.79-.42.79-1.8.06-3.61,0-5.5,0V21.48H50.25V39.7H55V32.53h5.9V39.7h4.58V21.5H60.84ZM38,25.44A4.57,4.57,0,0,1,43.38,28a.92.92,0,0,0,.65.45c1.44,0,2.89,0,4.34,0,0-3.81-4.58-7.39-9.22-7.38a9.48,9.48,0,1,0-.14,19c4.61.11,9.2-3.4,9.33-7.19-1.35,0-2.71,0-4.06,0a1,1,0,0,0-1.08.61,4.33,4.33,0,0,1-3.53,2.39c-3,.21-5.26-2-5.31-5.23A5.1,5.1,0,0,1,38,25.44Zm69-1.37c-1.07-2.68-1.07-2.66-3.93-2.67a1.11,1.11,0,0,0-1.22.85c-2.19,5.54-4.42,11.08-6.63,16.61-.1.27-.18.54-.3.91h2.87c2.12,0,2.14,0,2.86-2a.94.94,0,0,1,1.08-.72c1.16,0,2.32,0,3.47,0,2,0,1.94,0,2.64,1.84.12.33.5.77.78.79,1.47.08,2.95,0,4.58,0-.18-.48-.29-.79-.41-1.09Zm-4.71,9.13c.53-1.76,1.05-3.49,1.58-5.22a4.6,4.6,0,0,1,.26-.47c.33,1,.62,1.95.9,2.87s.55,1.82.85,2.82Zm-33.9,6.49H73V21.48H68.31ZM23,39.71h4.54V21.48H23Z" transform="translate(0 0)"/><path class="a6d12838-0630-481a-82f8-639a05d0c2f1" d="M2.48,15.11a8.34,8.34,0,0,0,5.79,2.27,13.15,13.15,0,0,0,3.54-.72V11.85a4.57,4.57,0,0,1-3.46,1.64,4,4,0,0,1-3-1.18,4.12,4.12,0,0,1-1.15-3,4.32,4.32,0,0,1,1.14-3A3.92,3.92,0,0,1,8.29,5a4.51,4.51,0,0,1,2,.44,4,4,0,0,1,1.54,1.26V1.91a9.53,9.53,0,0,0-3.66-.78A8.09,8.09,0,0,0,5,1.79a8.71,8.71,0,0,0-2.7,1.83A7.83,7.83,0,0,0,0,9.27,7.49,7.49,0,0,0,2.48,15.11Zm16.27,2.21a4.56,4.56,0,0,0,1.84-.38,2.86,2.86,0,0,0,1.33-1.14h0V17h3.73V6.47H22v1a4,4,0,0,0-3.25-1.37,4.89,4.89,0,0,0-3.78,1.64,5.67,5.67,0,0,0-1.48,4,5.68,5.68,0,0,0,1.5,4A4.93,4.93,0,0,0,18.75,17.32ZM17.94,10a2.27,2.27,0,0,1,1.75-.68,2.27,2.27,0,0,1,1.75.68,2.38,2.38,0,0,1,.65,1.69,2.4,2.4,0,1,1-4.79,0A2.37,2.37,0,0,1,17.94,10ZM31.77,16A4.05,4.05,0,0,0,35,17.32a4.88,4.88,0,0,0,3.78-1.63,5.63,5.63,0,0,0,1.48-3.94,5.72,5.72,0,0,0-1.5-4A4.91,4.91,0,0,0,35,6.12a4.35,4.35,0,0,0-1.82.39,3.1,3.1,0,0,0-1.35,1.15h0V6.47H28V20.13h3.73ZM32.29,10a2.59,2.59,0,0,1,3.5,0,2.38,2.38,0,0,1,.65,1.69,2.4,2.4,0,1,1-4.8,0A2.38,2.38,0,0,1,32.29,10ZM74.8,0H71.07V17H74.8ZM50.09,17h3.73V9.56h2.11V6.49H53.82V3.34H50.09V6.49h-1.2V9.56h1.2Zm11.57.35A4.56,4.56,0,0,0,63.5,17a2.86,2.86,0,0,0,1.33-1.14h0V17H68.6V6.49H64.87v1a4.05,4.05,0,0,0-3.25-1.37,4.89,4.89,0,0,0-3.78,1.64,5.67,5.67,0,0,0-1.48,4,5.68,5.68,0,0,0,1.5,4A4.92,4.92,0,0,0,61.66,17.34Zm-.81-7.28a2.56,2.56,0,0,1,3.5,0A2.37,2.37,0,0,1,65,11.75a2.4,2.4,0,1,1-4.79,0A2.38,2.38,0,0,1,60.85,10.06Zm64.49,5.76h0V17h3.72V6.49h-3.72v1a4.07,4.07,0,0,0-3.26-1.37,4.86,4.86,0,0,0-3.77,1.64,5.68,5.68,0,0,0-1.49,4,5.69,5.69,0,0,0,1.51,4,4.91,4.91,0,0,0,3.79,1.65A4.6,4.6,0,0,0,124,17,2.91,2.91,0,0,0,125.34,15.82Zm-4-2.38a2.35,2.35,0,0,1-.65-1.69,2.38,2.38,0,0,1,.65-1.69,2.59,2.59,0,0,1,3.5,0,2.37,2.37,0,0,1,.64,1.69,2.46,2.46,0,0,1-4.14,1.69Zm-37.47.87h5.52l1,2.68H94.7L88.88,1.56H84.5L78.57,17h4.25Zm2.76-8h0l1.64,4.91H85Zm12.94,6.42a4.09,4.09,0,0,1,.56-2.34,2.28,2.28,0,0,1,2-.83,3.17,3.17,0,0,1,1.57.35V6.35H103a3.6,3.6,0,0,0-3.4,1.86h0V6.49H95.86V17h3.73Zm10.85,4.59a6.38,6.38,0,0,0,3.41-.92,4.21,4.21,0,0,0,1.93-2.69H112.2a1.93,1.93,0,0,1-1.78,1,2.07,2.07,0,0,1-2.34-2.34h7.84V12a5.85,5.85,0,0,0-1.51-4.26,5.61,5.61,0,0,0-4.24-1.57A5.89,5.89,0,0,0,106,7.65a5.34,5.34,0,0,0-1.6,4.1,5.15,5.15,0,0,0,1.69,4.11A6.38,6.38,0,0,0,110.44,17.34ZM108.91,9a2.38,2.38,0,0,1,1.44-.43,2.19,2.19,0,0,1,1.38.46,1.9,1.9,0,0,1,.73,1.19h-4.32A1.9,1.9,0,0,1,108.91,9Zm26.71,59.22a2.34,2.34,0,0,0-.91-.91,2.4,2.4,0,0,0-1.25-.34,2.51,2.51,0,0,0-2.16,1.25,2.5,2.5,0,0,0,.91,3.41,2.51,2.51,0,0,0,1.25.33,2.49,2.49,0,0,0,1.25-.33,2.48,2.48,0,0,0,.91-3.41Zm-.73,2.67a1.93,1.93,0,0,1-1.43.59,2,2,0,0,1-2-2,2,2,0,0,1,2-2,2,2,0,0,1,2,2A2,2,0,0,1,134.89,70.88Zm-.9-1.13a.61.61,0,0,0-.23-.12,1,1,0,0,0,.55-.29.64.64,0,0,0,.17-.46.69.69,0,0,0-.22-.55,1.07,1.07,0,0,0-.74-.21h-1.19v2.67H133V69.74h.08a.38.38,0,0,1,.27.15,7.51,7.51,0,0,1,.51.91h.78L134.2,70A1.05,1.05,0,0,0,134,69.75Zm-.71-.49H133v-.67h.32a.6.6,0,0,1,.38.09.28.28,0,0,1,.11.24.3.3,0,0,1-.11.24A.7.7,0,0,1,133.28,69.26ZM93.7,58.45a.79.79,0,0,1,0-1.06q4.13-6.3,8.2-12.62c.11-.16.2-.33.34-.57h-.7c-2,0-3.92,0-5.89,0a1,1,0,0,0-1,.53c-2.27,3.71-4.57,7.4-6.86,11.1-.1.16-.21.31-.41.6V44.25H80.48v27l-6.91-8.87a7.3,7.3,0,0,0,4.75-3.25,9.79,9.79,0,0,0,.54-10,7.47,7.47,0,0,0-5.29-4.44,22.66,22.66,0,0,0-4.19-.44c-2.94-.07-5.89,0-8.84,0H59.9v9.09a1.08,1.08,0,0,1-.3-.46A14.2,14.2,0,0,0,38.49,46c-.34.22-.59.36-1,0a1.08,1.08,0,0,0-.71-.23,1.17,1.17,0,0,1-1.06-.6c-.17-.29-.29-.62-.46-1H33.69a5.89,5.89,0,0,1,.37-.69c.19-.27.43-.51.62-.78a1.49,1.49,0,0,0,0-1.62c-.37-.44-.83-.27-1.23-.11a2.79,2.79,0,0,0-1,.61,11.77,11.77,0,0,1-2.61,2.2,2.39,2.39,0,0,1-1.2.43c-.17,0-.34.23-.49.36a3.57,3.57,0,0,1-.74.67,2.5,2.5,0,0,1-.92.14c-.3,0-.59,0-.88.1-.87.16-1.09.62-.66,1.39a4.17,4.17,0,0,0,2,1.63.64.64,0,0,1,.4.86c-.56,2.6-1.09,5.21-1.63,7.82l-.93,4.46h-.13q-1.92-8.71-3.85-17.45c-1.57,0-3.09,0-4.61,0-.51,0-.7.15-.81.64-1,4.54-2,9.09-3,13.63-.23,1-.47,2.09-.71,3.14h-.13C10.31,55.81,9.13,50,8,44.2H7.26L1,44.17v.44a3.47,3.47,0,0,1,.2.5L5.55,62.47q1.1,4.38,2.22,8.75c.05.16.26.39.39.4,2,0,3.93,0,5.94,0q2-8.7,4-17.37l.11,0,3.93,17.34H28.2q2-7.56,3.92-15.09a16.13,16.13,0,0,0,1.78,8.34,13.56,13.56,0,0,0,6.27,5.95,12.45,12.45,0,0,0,.26-1.91c0-1-.14-2-.2-3a20.67,20.67,0,0,0-.32-4,10.73,10.73,0,0,0-.56-1.42,1,1,0,0,1-.11-.35,6,6,0,0,1,1.25-3.94,4.59,4.59,0,0,0,1.21-1.88c0-.16.21-.29.33-.44.79.42.46,1.18.58,1.72l1-.06a6.65,6.65,0,0,0-.17-1.25,2.76,2.76,0,0,1,.5-2.61,15.45,15.45,0,0,1,1.16-1.27c.08-.09.28-.18.36-.14a8.62,8.62,0,0,1,2,1,2.81,2.81,0,0,0,1.38.61,1.12,1.12,0,0,1,1,1c.21,1.46.45,2.92.65,4.39a.89.89,0,0,1-.21.53c-.33.45-.71.86-1,1.3a1.71,1.71,0,0,0-.22,1.69c.17.5.63.56,1,.58.2,0,.6-.28.59-.43a1.48,1.48,0,0,1,1.17-1.57l0,0a.6.6,0,0,1,1,.33c.35,1.15.73,2.29,1.05,3.44a3.9,3.9,0,0,1,.16,1.51,7.3,7.3,0,0,1-1.43,2.78,13.52,13.52,0,0,0-1,2,2.17,2.17,0,0,0,.08,1.84,14.7,14.7,0,0,0,8.19-8.63v9.07h6.57V62.9c.16.21.26.31.34.43L75.3,75a.89.89,0,0,0,.81.44c2.36,0,4.71,0,7.07,0,.15,0,.31,0,.57,0l-3-3.81h6.61V60l.43.66q3.33,5.33,6.65,10.64a.65.65,0,0,0,.65.39h7.22a3.07,3.07,0,0,0,.38,0l-.18-.29C99.61,67,96.67,62.72,93.7,58.45ZM49,48.74a.93.93,0,0,1-1.05,0,.51.51,0,0,0-.77.08.76.76,0,0,1-.63.18,1.64,1.64,0,0,0-1.66.28.59.59,0,0,1-.75,0,1.24,1.24,0,0,0-.89,0c-.43.15-.79.46-1.22.63s-1,.29-1.55.47a1.88,1.88,0,0,0-.74.43,1.46,1.46,0,0,1-2,.43c-.56-.31-.86-.16-1.17.43s-.6,1.27-.93,1.89-.6.58-1.05.25a4.77,4.77,0,0,1-.91-.94,3.22,3.22,0,0,1-.49-1c-.26-.86-.66-1.5-1.66-1.58a.88.88,0,0,1-.59-.45A1.9,1.9,0,0,0,29.85,49c-1.15-.51-2.31-1-3.45-1.59a4.19,4.19,0,0,1-.83-.64.44.44,0,0,1-.13-.38.52.52,0,0,1,.35-.19,15.44,15.44,0,0,0,1.81-.24A5.53,5.53,0,0,0,29,45.2c.67-.43,1.31-.9,1.93-1.38s1-.88,1.52-1.34a2.53,2.53,0,0,1,1.81-.9,6.9,6.9,0,0,1-.4,1c-.26.39-.63.7-.85,1.1a1.55,1.55,0,0,0-.11,1c0,.13.49.18.76.21a6.59,6.59,0,0,1,.77,0,.83.83,0,0,1,.56.34,2.29,2.29,0,0,0,1.55,1.15c.66.18,1.31.38,2,.57a.87.87,0,0,0,1-.4c.79-1.21,2.12-1.25,3.31-1.53a1.5,1.5,0,0,1,1.44.57,8.63,8.63,0,0,0,.6.73c.22.21.51.52.76.5.74,0,1.23.43,1.81.72s1,.49,1.55.74c.1,0,.24.16.25.24S49.12,48.69,49,48.74Zm24.16,6.39a3.35,3.35,0,0,1-2.8,2.67,38.21,38.21,0,0,1-3.91.23V50.4c1.66,0,3.33-.21,4.91.47a3.06,3.06,0,0,1,.88.58A3.57,3.57,0,0,1,73.19,55.13Zm41.74,2.8a25.24,25.24,0,0,0-3-2c-1.19-.7-2.45-1.29-3.63-2a2.27,2.27,0,0,1-1.12-2.31,2,2,0,0,1,1.7-1.8A1.82,1.82,0,0,1,111,51.06c.15.42.24.87.36,1.34h6a9.61,9.61,0,0,0-1.23-4.8,8.28,8.28,0,0,0-15.09,5.8A7.85,7.85,0,0,0,105.16,59c1.3.75,2.73,1.31,4.06,2A7.34,7.34,0,0,1,111,62.28a2.46,2.46,0,0,1,.23,2.86,2.15,2.15,0,0,1-2.12,1.25A2.25,2.25,0,0,1,107,64.58c-.17-.58-.25-1.18-.37-1.8h-6.12a26.83,26.83,0,0,0,.22,2.76A7.44,7.44,0,0,0,106,71.77a10.36,10.36,0,0,0,6.49,0A6.63,6.63,0,0,0,117,67.6a12.17,12.17,0,0,0,.6-2.52A7.36,7.36,0,0,0,114.93,57.93Zm14.82-13.29H123V62.81l.55-.28c1.93-1.09,3.86-2.19,5.8-3.26a.76.76,0,0,0,.44-.78q0-6.65,0-13.29Zm-6.5,21.69a.79.79,0,0,0-.3.57c0,1.22,0,2.44,0,3.66v1.16h6.79v-9c-.09,0-.13,0-.16,0C127.46,63.94,125.35,65.12,123.25,66.33ZM42.42,4.63a2.14,2.14,0,1,0-2.14-2.14A2.14,2.14,0,0,0,42.42,4.63Z" transform="translate(0 0)"/></svg>