<?xml version="1.0" encoding="utf-8"?>
<!-- Generator: Adobe Illustrator 26.0.1, SVG Export Plug-In . SVG Version: 6.00 Build 0)  -->
<svg version="1.1" id="Layer_1" xmlns="http://www.w3.org/2000/svg" xmlns:xlink="http://www.w3.org/1999/xlink" x="0px" y="0px"
	 viewBox="0 0 1920 1080" style="enable-background:new 0 0 1920 1080;" xml:space="preserve">
<style type="text/css">
	.st0{fill:#EDE941;}
	.st1{opacity:0.8;fill:#C13C7E;enable-background:new    ;}
	.st2{opacity:0.6;enable-background:new    ;}
	.st3{fill:#EF4423;}
	.st4{opacity:0.8;}
	.st5{fill:#C13C7E;}
	.st6{opacity:0.8;fill:#352A6F;enable-background:new    ;}
	.st7{fill:#352A6F;}
	.st8{opacity:0.8;fill:#09A6A4;enable-background:new    ;}
	.st9{opacity:0.8;fill:#28C2E5;enable-background:new    ;}
	.st10{opacity:0.8;fill:#2EB77C;enable-background:new    ;}
</style>
<path class="st0" d="M270.8,1080c16.8-86,47.9-168.5,92.1-244.2C487.2,623.1,707.6,477,960.3,442.2c86.8-11.9,175-10.6,261.4,3.9
	C1572.3,504.4,1841,763.3,1920,1080H270.8z"/>
<path class="st1" d="M1920,800.5c-134.2-12.6-278-22.1-427.9-28.2c-133-5.5-270.8-8.2-410.8-8.2c-66.4,0-132.1,0.6-197.3,1.9
	c-77.8,1.5-154.5,3.8-229.7,7c-109.2,4.7-215.1,11.1-316.3,19.3c-120,9.7-233.5,21.7-338.1,35.9V1080h1920V800.5z"/>
<g class="st2">
	<path class="st3" d="M1689.2,980.3c-16.4-45.1-40.2-87.3-70.2-124.8c-6.9-8.6-14.1-17-21.6-25.1c-2.6-2.7-5.1-5.5-7.8-8.2
		c-118.1-120.8-294.4-164.5-455.3-112.9c-13.7,4.4-27.2,9.5-40.6,15.3c-49.7,21.5-95,51.9-133.7,89.8c-2.6,2.6-5.2,5.1-7.8,7.8
		c-68.5,69.9-111.8,160.6-123.2,257.8h219.3c15.2-73.7,61.3-135.1,123-167.4c47.5-25,102.7-31.3,154.6-17.4
		c24.3,6.6,47.4,17.3,68.1,31.7c49.7,34.5,86.2,89.1,99.4,153.1h219.3C1708.9,1046,1700.9,1012.5,1689.2,980.3z"/>
</g>
<g class="st4">
	<path class="st5" d="M2.9,157.4c-1,0.1-1.9,0.2-2.9,0.3v775.5c15.4,1.8,31,2.8,46.5,2.8c101.9,0.2,199.9-39.6,272.7-110.9
		c115.9-113.3,150-286.3,85.6-435.1c-13.4-30.9-30.7-59.9-51.5-86.3c-10.5-13.3-21.9-26-34.1-37.9c-54.4-53.3-123.3-89.3-198-103.8
		C82.3,154.6,42.4,153,2.9,157.4L2.9,157.4z"/>
</g>
<path class="st5" d="M1033.8,1080c6.5-33.3,18.6-65.2,35.7-94.5c48.1-82.3,133.4-138.9,231.2-152.4c33.6-4.6,67.7-4.1,101.2,1.5
	c135.7,22.6,239.7,122.8,270.3,245.4H1033.8z"/>
<path class="st6" d="M1143,311.1c0.1,314.6-235.5,579.4-548,615.9c-23.9,2.8-47.9,4.1-72,4.1c-9,0-18-0.2-26.9-0.6
	C293.9,921.7,108.7,814.9,0,644.2V0h1059.4C1114.3,94.5,1143.2,201.8,1143,311.1z"/>
<g class="st4">
	<path class="st5" d="M99.7,1056.3c45.1-16.4,87.3-40.2,124.8-70.2c8.6-6.9,17-14.1,25.1-21.6c2.8-2.5,5.5-5.1,8.2-7.8
		c28.7-27.9,53.5-59.6,73.7-94.2c8.9-15.2,16.9-31,23.9-47.2c24.3-55.9,36.7-116.2,36.6-177.2c0.1-46.4-7.1-92.5-21.3-136.6
		c-4.4-13.7-9.5-27.2-15.3-40.6c-21.5-49.7-51.9-95-89.8-133.7c-2.5-2.6-5.1-5.2-7.8-7.8C187.9,251,97.2,207.6,0,196.2v219.3
		c73.7,15.2,135.1,61.4,167.4,123c16.2,30.7,24.6,64.9,24.6,99.5c0,18.6-2.4,37.1-7.2,55.1c-6.6,24.3-17.3,47.4-31.7,68.1
		C118.6,811,64,847.5,0,860.7V1080C34,1076,67.5,1068.1,99.7,1056.3z"/>
</g>
<path class="st6" d="M1059.4,1080H0V435.8c108.7-170.7,293.9-277.6,496.1-286.3c8.9-0.4,17.9-0.6,26.9-0.6c24.1,0,48.1,1.4,72,4.1
	c312.5,36.4,548.1,301.2,548,615.9C1143.2,878.2,1114.3,985.5,1059.4,1080z"/>
<g class="st4">
	<path class="st7" d="M1124.2,401.1c0,248.6-201.5,450.1-450.1,450S224,649.6,224.1,401c0-169.3,95-324.2,245.8-401h408.6
		C1029.3,76.8,1124.2,231.8,1124.2,401.1L1124.2,401.1z"/>
</g>
<path class="st8" d="M1278.1,0h330.3c0,106.1-45.1,209.1-132.4,277.3c-80.3,62.7-180.5,83.7-276.1,66.7
	c-89-15.8-174.2-64.6-235.7-143.3c-3.6-4.6-7-9.2-10.3-13.8C914.2,131.8,889.8,67.4,883,0H1278.1L1278.1,0z"/>
<path class="st9" d="M0,0v174.9c39.2,19.5,79.9,35.9,121.7,49.1c41.5,13.1,83.8,23.5,126.6,31.3c75.1,13.8,155,20.8,237.5,20.8
	c49,0,98.9-2.4,149.3-7.4s101.4-12.3,152.4-22.1c95.1-18.3,186.7-44.5,272.3-77.5c24-9.2,47.4-18.9,70.4-29.2
	c6.8-3,13.5-6.1,20.2-9.2c80.8-37.6,154.7-81.6,219.1-130.7H0z"/>
<path class="st10" d="M1556.3,0c-24.5,75.5-42.9,156.4-54.8,240.7c-10.7,76.6-16.1,153.8-16,231.1c0,37.3,1.2,74.3,3.6,111
	c2.9,43.8,7.5,86.9,13.7,129.2c8.7,60,21.2,119.4,37.3,177.9c18.7,67.5,42.1,131.3,69.8,190.2H1920V0H1556.3z"/>
</svg>
