<svg id="Layer_1" data-name="Layer 1" xmlns="http://www.w3.org/2000/svg" viewBox="0 0 3840 1080"><defs><style>.cls-1{fill:#c13c7e;}.cls-1,.cls-2,.cls-4{opacity:0.8;}.cls-2{fill:#ef4423;}.cls-3{fill:#ede941;}.cls-4{fill:#2eb77c;}</style></defs><path class="cls-1" d="M1915.6,2.88c-.1-1-.21-1.92-.34-2.88H1139.75A396.41,396.41,0,0,0,1137,46.51a388.49,388.49,0,0,0,110.87,272.72A391.27,391.27,0,0,0,1683,404.86a387.4,387.4,0,0,0,86.28-51.53,391.51,391.51,0,0,0,37.86-34.1,388.11,388.11,0,0,0,103.77-198,396.84,396.84,0,0,0,4.7-118.31Z"/><path class="cls-2" d="M3059,0a1066.71,1066.71,0,0,1-162.54,238.37,1010.93,1010.93,0,0,1-106.17,101.7q-12.09,10-24.44,19.53a941,941,0,0,1-177,108.18c-113.34,53-233.3,81.26-356.87,84q-10,.24-20,.23c-130.61,0-257.4-28.33-376.84-84.22a935.86,935.86,0,0,1-116.65-65.13,978.05,978.05,0,0,1-164.3-135.85q-13.56-13.91-26.69-28.43A1066.71,1066.71,0,0,1,1365,0Z"/><path class="cls-1" d="M1885.26,3.28c-.11-1.1-.24-2.19-.38-3.28H1665.55a261.61,261.61,0,0,1,5.38,53c0,91.71-47.13,171.82-116.72,213.8A214.29,214.29,0,0,1,1443,298c-125.68,0-227.93-109.91-227.93-245a261.61,261.61,0,0,1,5.38-53H1001.12A450.21,450.21,0,0,0,998,53c0,116.87,44.87,227.24,126.35,310.79a445.88,445.88,0,0,0,495.84,97.58,441.84,441.84,0,0,0,98.32-58.72,445.4,445.4,0,0,0,43.14-38.86,442.27,442.27,0,0,0,118.26-225.68,452,452,0,0,0,5.35-134.83Z"/><path class="cls-3" d="M2846.31,180.23a451.69,451.69,0,0,1-56,159.84q-6.54,11.28-13.71,22.11C2677,513,2490.68,598.77,2294,566.09A511.39,511.39,0,0,1,2232,551.77c-193-57.37-331.44-223.24-352-413.66-4.18-38.58-9.52-78.17-3.5-118.07q1.27-8.44,2.85-16.76c.2-1.1.41-2.19.63-3.28h957.84A459.3,459.3,0,0,1,2846.31,180.23Z"/><path class="cls-4" d="M2390.9,0q12.95,27.53,27.14,53.54c51.38,94.13,112.84,169.3,182.69,223.42,38.68,30,79.82,53.25,122.3,69.17a412.87,412.87,0,0,0,42.84,13.47q5.36,1.36,10.73,2.58A394.84,394.84,0,0,0,2864,372a400.58,400.58,0,0,0,141-25.87c42.48-15.92,83.62-39.2,122.3-69.17,69.85-54.12,131.31-129.29,182.69-223.42q14.19-26,27.14-53.54Z"/></svg>