<svg id="a03515c5-4097-4330-83f6-dce9eed6ca93" data-name="Layer 1" xmlns="http://www.w3.org/2000/svg" viewBox="0 0 20 12.18"><defs><style>.b8ca672d-faa0-4ba3-8f2e-df49a34329e7{fill:#fff;}</style></defs><path class="b8ca672d-faa0-4ba3-8f2e-df49a34329e7" d="M.32,6.82A1.06,1.06,0,0,1,0,6a1.1,1.1,0,0,1,.32-.78l1-1a1.13,1.13,0,0,1,.78-.35,1,1,0,0,1,.78.3L10,11.32l7.11-7.11a1,1,0,0,1,.78-.3,1.13,1.13,0,0,1,.78.35l1,1A1.1,1.1,0,0,1,20,6a1.06,1.06,0,0,1-.32.78l-8.9,8.9a1,1,0,0,1-1.56,0Z" transform="translate(0 -3.91)"/></svg>