<?xml version="1.0" encoding="utf-8"?>
<!-- Generator: Adobe Illustrator 25.0.1, SVG Export Plug-In . SVG Version: 6.00 Build 0)  -->
<svg version="1.1" id="a03515c5-4097-4330-83f6-dce9eed6ca93"
	 xmlns="http://www.w3.org/2000/svg" xmlns:xlink="http://www.w3.org/1999/xlink" x="0px" y="0px" viewBox="0 0 20 12.2"
	 style="enable-background:new 0 0 20 12.2;" xml:space="preserve">
<style type="text/css">
	.st0{fill:#ADB5BD;}
</style>
<path class="st0" d="M0.3,2.9C0.1,2.7,0,2.4,0,2.1c0-0.3,0.1-0.6,0.3-0.8l1-1C1.5,0.1,1.8,0,2.1,0c0.3,0,0.6,0.1,0.8,0.3L10,7.4
	l7.1-7.1C17.3,0.1,17.6,0,17.9,0c0.3,0,0.6,0.1,0.8,0.4l1,1C19.9,1.5,20,1.8,20,2.1c0,0.3-0.1,0.6-0.3,0.8l-8.9,8.9
	c-0.3,0.4-1,0.5-1.4,0.2c-0.1,0-0.1-0.1-0.2-0.2L0.3,2.9z"/>
</svg>
