<svg id="Layer_1" data-name="Layer 1" xmlns="http://www.w3.org/2000/svg" viewBox="0 0 3840 540"><defs><style>.cls-1{fill:#09a6a4;}.cls-1,.cls-2{opacity:0.8;}.cls-2{fill:#c34983;}</style></defs><path class="cls-1" d="M702.49,410.73c327.28-42.85,629.55-72.9,898.41-89.31,331.19-20.22,610.72-19.67,830.82,1.65,203.42,19.7,416,87.24,631.78,200.75q15.09,7.93,30.19,16.18h705.4C3619.82,392.28,3437,268.84,3254.7,172.44c-138-73-276.13-130.56-413.27-172.44H761.16Q705.08,7,648,14.45c-249,32.63-472.93,67.29-648,96.33V516.49C180.66,485.86,427.57,446.72,702.49,410.73Z"/><path class="cls-2" d="M2027.49,0c21.82-19.58,49-37.52,81.27-53.55a545.9,545.9,0,0,1,53.08-22.84q6-2.25,12.22-4.39a723.88,723.88,0,0,1,88.52-24.3c56.67-11.92,116.65-18.25,178.44-18.87q5,0,10,0c65.3,0,128.7,6.36,188.42,18.92q30.27,6.36,58.32,14.63a602.24,602.24,0,0,1,82.15,30.52q6.78,3.12,13.35,6.38c32.23,16,59.44,34,81.27,53.55Z"/><path class="cls-2" d="M2874.51,0c-21.83,19.58-49,37.52-81.27,53.55a547.16,547.16,0,0,1-53.09,22.84q-6,2.25-12.22,4.39a722.89,722.89,0,0,1-88.52,24.3C2582.74,117,2522.76,123.34,2461,124q-5,0-10,0c-65.31,0-128.7-6.36-188.42-18.92q-30.28-6.36-58.33-14.63a602.73,602.73,0,0,1-82.15-30.52q-6.78-3.12-13.34-6.38c-32.24-16-59.45-34-81.27-53.55Z"/></svg>