<svg id="Layer_1" data-name="Layer 1" xmlns="http://www.w3.org/2000/svg" viewBox="0 0 3840 540"><defs><style>.cls-1{fill:#2eb77c;}.cls-1,.cls-3{opacity:0.8;}.cls-2{fill:none;}.cls-3{fill:#2ba9a7;}</style></defs><path class="cls-1" d="M1723.76,66.54A308.18,308.18,0,0,0,1793.9,165a323,323,0,0,0,102.48,65.33,333.17,333.17,0,0,0,124.26,23.76,334.9,334.9,0,0,0,106.63-17.28,326.69,326.69,0,0,0,92.1-48.22,315.84,315.84,0,0,0,71.1-73.88,302.74,302.74,0,0,0,25.83-45.45,297.91,297.91,0,0,0,17.51-48.9A297,297,0,0,0,2342.14-26h-643A296.25,296.25,0,0,0,1723.76,66.54Z"/><rect class="cls-2" x="1831.61" y="-34.79" width="268.02" height="323.22" transform="matrix(0.03, -1, 1, 0.03, 1770.28, 2086.81)"/><path class="cls-2" d="M1847.91,129.91c-11.88,27.36-37.71,48.51-37.71,48.51s65.16,73.41,210.39,75.85a451,451,0,0,0,101-10.24L2086.19,23.94s-52.48,31.32-110,8.41c-24.17-9.62-43-26.92-55.51-41.2l-53.07-1.85c1.81,37.69.23,94.78-19.67,140.61"/><path class="cls-3" d="M1709,204c-72.7,0-199-99-361-99s-319.39,61-456,61C610,166,638.63,0,405,0H1898.58S1850,204,1709,204Z"/></svg>