<svg id="Layer_1" data-name="Layer 1" xmlns="http://www.w3.org/2000/svg" viewBox="0 0 3840 540"><defs><style>.cls-1{fill:#2ba9a7;}.cls-1,.cls-2,.cls-3{opacity:0.8;}.cls-2{fill:#ef4423;}.cls-3{fill:#ede94d;}</style></defs><path class="cls-1" d="M1496.52,130C882.62,130,574.6,540,85.77,540H2205.23S2110.42,130,1496.52,130Z"/><path class="cls-1" d="M1106.54,399.76c200.42-141,569.41,94.16,711.76-48.18S2157,540,2157,540H741S906.13,540.79,1106.54,399.76Z"/><path class="cls-2" d="M3262.92,540H1836.33a1332.54,1332.54,0,0,1,196.12-102.74c2.52-1.07,5-2.12,7.57-3.17,160.05-66.26,331.51-99.86,509.6-99.86q64.7,0,128.16,5.91a1310.85,1310.85,0,0,1,381.44,93.95A1331.57,1331.57,0,0,1,3262.92,540Z"/><path class="cls-3" d="M2233.68,540H960s102-42,445-42S2233.68,540,2233.68,540Z"/></svg>