<svg id="Layer_1" data-name="Layer 1" xmlns="http://www.w3.org/2000/svg" viewBox="0 0 1920 1080"><defs><style>.cls-1,.cls-8{fill:#2eb77c;}.cls-1,.cls-2,.cls-3,.cls-4,.cls-6{opacity:0.8;}.cls-2{fill:#f04f37;}.cls-3{fill:#ede94d;}.cls-5{fill:#c13c7e;}.cls-6{fill:#352a6f;}.cls-7{fill:#3ac4e6;}</style></defs><path class="cls-1" d="M1556.23,0c-24.46,75.5-42.86,156.39-54.75,240.68a1629.91,1629.91,0,0,0-14.84,167.88h0q-1.19,31.43-1.18,63.18,0,56,3.64,111,2.39,36.35,6.33,72.07,3.18,28.8,7.35,57.13a1469.41,1469.41,0,0,0,35,169.43c.76,2.83,1.54,5.66,2.32,8.48,17.15,61.82,38.17,120.55,62.83,175.17,0,0,0,0,0,0,2.21,4.9,4.45,9.74,6.72,14.57l.2.42H1920V0Z"/><path class="cls-2" d="M1603,1079.58H1123c0-171.07-25.22-330.13-75-472.91q-1.38-3.95-2.77-7.86c-.44-1.22-.87-2.45-1.32-3.67C995.29,460,925,341.47,835,242.91c-21.4-23.44-42.41-45.66-63.61-66.65C696.05,101.66,618.28,42.62,512,0l-1-.42h738l.33.42c26.3,33.41,51.76,68,76.07,103.82,63.7,93.82,119.42,195.68,161.24,304.74h0q5.56,14.49,10.79,29.16a1744.36,1744.36,0,0,1,61.16,214.91A1910.86,1910.86,0,0,1,1592.23,865q10,98.09,10.71,200s0,0,0,0Q1603,1072.28,1603,1079.58Z"/><path class="cls-3" d="M1920,807.48q-20,1.42-40.14,3.39c-50.42,4.91-101.36,12.27-152.39,22.11-46,8.86-91.14,19.56-135.2,32q-27.51,7.74-54.44,16.38-42.16,13.51-82.69,29.12-35.94,13.8-70.39,29.19-10.15,4.54-20.16,9.2c-80.8,37.63-154.67,81.57-219.1,130.73H1920V807.48Z"/><g class="cls-4"><path class="cls-5" d="M1056.13,303.41Q1051.44,245.57,1041,188A1192,1192,0,0,0,991,0a3.52,3.52,0,0,0-.15-.42H511L512,0h-165c74.68,78.62,128.26,173.6,154.6,275.82a582.19,582.19,0,0,1,17,103.41,571.19,571.19,0,0,1-13.62,172A570.68,570.68,0,0,1,452.34,690.9,587.53,587.53,0,0,1,327.72,849.52q-4.28,3.87-8.63,7.63-13.5,11.77-27.71,22.72A629.06,629.06,0,0,1,239,916.26c-71.5,44.48-152.73,75.38-239,90V1080H848.71a1186.68,1186.68,0,0,0,64.14-104,1194.06,1194.06,0,0,0,115.33-302.12q7-30,12.53-60.17,1.69-9.27,3.23-18.56A1185,1185,0,0,0,1056.13,303.41Z"/></g><g class="cls-4"><path class="cls-5" d="M303.36,670.9a290.67,290.67,0,0,0-38.61-64.64,293.45,293.45,0,0,0-25.55-28.37A290.94,290.94,0,0,0,60.85,496q-12.9-1.14-26-1.14a295.44,295.44,0,0,0-32.69,1.81c-.73.07-1.44.15-2.16.25V1078a296.28,296.28,0,0,0,34.85,2A291.08,291.08,0,0,0,239.2,996.92,293.22,293.22,0,0,0,269,963a291.24,291.24,0,0,0,34.33-59.1q4.84-11.2,8.73-22.69,4-11.9,7-24.07a292.67,292.67,0,0,0,8.35-69.74A291.32,291.32,0,0,0,303.36,670.9Z"/></g><path class="cls-6" d="M1249.33,0,1249-.42H835l-.06.42a469.6,469.6,0,0,1-41.71,136.1q-10,20.66-21.82,40.16a474.9,474.9,0,0,1-245.6,200.49q-3.54,1.28-7.13,2.48-4.92,1.68-9.91,3.25a473.24,473.24,0,0,1-142.32,21.76,476.08,476.08,0,0,1-89-8.35A472.59,472.59,0,0,1,21.51,255.11c-2.41-2.56-4.77-5.13-7.12-7.74h0Q7,239.17,0,230.63V811.85a971.67,971.67,0,0,0,182.37,53.57q14.59,2.77,29.35,5.12,39.33,6.24,79.66,9.33,10.32.78,20.71,1.35,27,1.49,54.36,1.49a978.62,978.62,0,0,0,294.4-45q41.76-13.14,81.84-29.86a980.53,980.53,0,0,0,298-194.13c2.45-2.34,4.9-4.68,7.32-7a985.16,985.16,0,0,0,120.75-141.48A978.55,978.55,0,0,0,1249.25,328a971.78,971.78,0,0,0,76.15-224.22A979,979,0,0,0,1341.23,0Z"/><g class="cls-4"><path class="cls-7" d="M1920,248.24c0,2,0,3.95,0,5.92a406.41,406.41,0,0,1-361.37,398.48,409.51,409.51,0,0,1-45.51,2.52q-8.86,0-17.65-.38A406.77,406.77,0,0,1,1190.63,0l.33-.42h58l.33.42h586.2A405.64,405.64,0,0,1,1920,242.86C1920,244.65,1920,246.44,1920,248.24Z"/></g><g class="cls-4"><path class="cls-8" d="M1092,1080H354c-29.53-37.49-58-76.5-85-117Q253.67,940,239,916.26q-14-22.57-27.27-45.72C170.24,798.28,134.11,722,105.57,641.85Q80.18,570.54,60.85,496A1868.34,1868.34,0,0,1,14.39,247.37h0A2094.19,2094.19,0,0,1,0,0H480c0,133.59,15.38,259.85,45.81,376.75q13.89,53.34,31.93,104c44.08,123.74,106.21,233.58,185,327.06q12.38,14.68,25.29,28.84c48.07,52.64,94.16,99.16,144.87,139.32C965.23,1017.51,1022.53,1052.25,1092,1080Z"/></g></svg>