<svg id="Layer_1" data-name="Layer 1" xmlns="http://www.w3.org/2000/svg" viewBox="0 0 3840 540"><defs><style>.cls-1{fill:#09a6a4;}.cls-1,.cls-2{opacity:0.8;}.cls-2{fill:#c34983;}</style></defs><path class="cls-1" d="M2470.28,464.93c122.39,11.85,246.37,37,371.15,75.07H761.16c293.69-36.53,567-62.64,814-77.75C1927.84,440.67,2229,441.57,2470.28,464.93Z"/><path class="cls-2" d="M2027.49,540c21.82-19.58,49-37.52,81.27-53.55a545.9,545.9,0,0,1,53.08-22.84q6-2.25,12.22-4.39a723.88,723.88,0,0,1,88.52-24.3c56.67-11.92,116.65-18.25,178.44-18.87q5,0,10-.05c65.3,0,128.7,6.36,188.42,18.92q30.27,6.36,58.32,14.63a602.24,602.24,0,0,1,82.15,30.52q6.78,3.12,13.35,6.38c32.23,16,59.44,34,81.27,53.55Z"/></svg>