<svg id="Layer_1" data-name="Layer 1" xmlns="http://www.w3.org/2000/svg" viewBox="0 0 3840 540"><defs><style>.cls-1{fill:#443c75;}.cls-1,.cls-2{opacity:0.8;}.cls-2{fill:#3eb981;}</style></defs><path class="cls-1" d="M2287.75,0C2244.06,17.75,2006.34,109.47,1668,149,966,231,1057-110,423,260,395.14,188.28,384.59,96,399.06,0Z"/><path class="cls-2" d="M3840,349.33c-86.19-39-178.2-79.5-274.34-120.07C3354.23,140.05,3153.41,63.32,2965.78,0H938.84C798.92,58.83,655.57,129.16,510.5,210.24A5180,5180,0,0,0,0,536.65V540H638.43q23.76-13.62,48.22-27.25C888.26,400.44,1084.85,311.23,1271,247.6,1497.27,170.23,1707.57,131,1896,131c345.9,0,866.14,141.36,1505.66,409H3840Z"/></svg>