<svg id="Layer_1" data-name="Layer 1" xmlns="http://www.w3.org/2000/svg" viewBox="0 0 1080.07 1080"><defs><style>.cls-1{fill:#c10230;}.cls-2{opacity:0.8;}.cls-3{fill:#a61e22;}.cls-4{opacity:0.5;}.cls-5{fill:#771213;}.cls-6{fill:#941a1d;}.cls-7{opacity:0.4;}.cls-8{fill:#8b181a;}.cls-9{fill:none;}</style></defs><rect class="cls-1" width="1080" height="1080"/><g class="cls-2"><path class="cls-3" d="M363.67,168.79c-.29.55-.6,1.1-.9,1.64a297.68,297.68,0,0,1-23.14,35.35c-42.31,55.65-100.87,92.84-158.89,117.67C109.15,354.11,38.38,365.94,0,370.39V0H402.07C403.45,67.83,388.61,123.35,363.67,168.79Z"/></g><g class="cls-4"><path class="cls-5" d="M1080.07,158.9a.41.41,0,0,0-.07.11C1003.92,277.89,888.84,313.57,792.69,319.5q-3.54.22-7,.38c-93.11,4.41-166.76-18.4-166.76-18.4s-.69-5.82-1.21-16.11a502.55,502.55,0,0,1,.89-60.94C623.18,162.25,640.88,73.35,698.8,0H1080V158.86Z"/></g><g class="cls-2"><path class="cls-6" d="M830.5,211.41c-41.39,22.1-80.29,38.9-116.81,51.11-34,11.39-66,18.81-96,22.85-69.23,9.32-128.06.69-177.77-18.56a327.86,327.86,0,0,1-52.45-26q-4.11-2.49-8.11-5.1a358.3,358.3,0,0,1-39.72-30c-36.8-31.88-65.19-68.86-86.5-103.26A543.84,543.84,0,0,1,203.64,0H706.22c31.59,32.51,62.43,73.6,91.72,125C812,149.71,830.5,211.41,830.5,211.41Z"/></g><g class="cls-2"><path class="cls-3" d="M327.86,251.43C897.22,57.92,933.15,687,933.15,687S501.22,951,342.41,364.91c-9.13-33.69-14.55-113.48-14.55-113.48Z"/></g><g class="cls-7"><path class="cls-5" d="M388.34,496.49c-5,25.11-11.1,49.51-17.89,72.89-3.51,12.13-7.22,24-11,35.51h0c-10.35,31.17-21.6,60-32.59,85.59-10.6,24.7-20.95,46.38-30,64.26C279.18,789.61,266.46,810,266.46,810s-21.38-.66-54.63-6.3c-43.63-7.38-107.69-23.34-170.77-57.59A442.21,442.21,0,0,1,0,720.87V0H219C286.36,48.12,331.46,104.44,360,164.57v0c.93,1.94,1.83,3.89,2.72,5.84a414,414,0,0,1,22.9,63.65c.62,2.25,1.21,4.51,1.79,6.77C409.14,326.05,404.58,415,388.34,496.49Z"/></g><g class="cls-7"><path class="cls-6" d="M278.48,77.14c499.77,499.75,198.1,764.6,198.1,764.6S36.58,505.25,229.72,133c11.11-21.41,48.76-55.87,48.76-55.87Z"/></g><g class="cls-2"><path class="cls-6" d="M1080.07,158.9a.41.41,0,0,0-.07.11v921H930.84q-22.08-15.88-41.72-32.29-5.22-4.32-10.26-8.72c-50.93-44.14-89.24-90.64-117.18-138.35h0c-.12-.21-.25-.41-.36-.62a0,0,0,0,1,0,0,460.65,460.65,0,0,1-34.71-73.46q-4.71-12.79-8.58-25.65v0q-4.41-14.6-7.77-29.23-3-12.78-5.15-25.56c-26.2-151.83,24.38-303.65,85-421.52l2.61-5c67-128.65,145-215.59,145-215.59s64.61,14,142.32,55Z"/></g><g class="cls-7"><path class="cls-6" d="M764.71,910.52c-470.29,253.34-603.33-217-603.33-217s337.87-281,572.22,133.65c13.47,23.84,31.11,83.33,31.11,83.33Z"/></g><g class="cls-4"><path class="cls-6" d="M891.2,1041.8q-1,3-2.08,5.91A310.5,310.5,0,0,1,875.34,1080H505.7a336,336,0,0,1,3.43-56,303.7,303.7,0,0,1,8.25-38.69c20.78-73.54,72.43-148,180-206.93,1.46-.81,2.93-1.6,4.41-2.39q4.14-2.24,8.4-4.41a671.09,671.09,0,0,1,68.59-30.41h0c1.61-.62,3.25-1.23,4.88-1.84,14.29-5.34,39.7-10.22,59.41-13.5h0c15.68-2.61,27.75-4.2,27.75-4.2C919,858.79,918,962.9,891.2,1041.8Z"/></g><g class="cls-4"><path class="cls-6" d="M0,720.87V1080H131.53a390.27,390.27,0,0,0,54-39,331,331,0,0,0,47.85-50.93h0a308.61,308.61,0,0,0,49.25-96.87c12.09-39.7,17.74-85.54,14.21-138.43-2.54-38.1-9.84-79.86-22.92-125.62q-3.51-12.27-7.57-24.92h0q-3.39-10.55-7.18-21.36s-1.81.24-4.95.69h0c-15.13,2.14-61,9.08-82.21,17C113.28,622.45,66.2,648,28.68,675.9Q13.29,687.33,0,699.26Z"/></g><g class="cls-4"><path class="cls-6" d="M811.79,1080H220.43q-17.82-18-34.93-39-12.33-15.18-24.22-32.06C114.87,943,73.66,857.2,41.15,746.42l-.09-.31C36,728.77,31.83,701.56,28.68,675.9c-4.32-35.19-6.7-67.48-6.7-67.48,82.14-25.78,155.86-39.56,222-43.65,45.67-2.82,87.73-1,126.47,4.61a502.25,502.25,0,0,1,64.71,13.73,449.34,449.34,0,0,1,117.05,51.76h0q6.64,4.14,13,8.5c42.05,28.49,77.19,62.79,106.54,99.89q13.62,17.22,25.62,35.15c10.61,15.79,20.3,31.89,29.16,48.1A713.68,713.68,0,0,1,761.3,900a0,0,0,0,0,0,0l.75,1.87a.14.14,0,0,1,0,.06,848.73,848.73,0,0,1,38.4,122C805.4,1044.85,809.07,1063.81,811.79,1080Z"/></g><g class="cls-4"><path class="cls-6" d="M31,1080c34.62-26,77.51-50.1,130.32-71.08q7.36-2.94,15-5.78C190,998,214,993.31,233.35,990.05h0c16.8-2.85,30.08-4.6,30.08-4.6A757.71,757.71,0,0,1,290.19,1080Z"/></g><g class="cls-4"><path class="cls-8" d="M1017.6,1080H366c39.53-24.46,86.76-44,143.17-56,78.17-16.66,174-18.92,291.35-.1q37.69,6,78.38,15,6.14,1.38,12.34,2.81,35,8.07,72.21,18.45C977.92,1064.3,997.39,1071.66,1017.6,1080Z"/></g><rect class="cls-9" width="1080" height="1080"/><rect class="cls-9" width="1080" height="1080"/></svg>