<svg id="Layer_1" data-name="Layer 1" xmlns="http://www.w3.org/2000/svg" viewBox="0 0 3840 540"><defs><style>.cls-1,.cls-3,.cls-5{opacity:0.8;}.cls-2{fill:#f04f37;}.cls-3{fill:#ede94d;}.cls-4,.cls-5{fill:#c13c7e;}</style></defs><g class="cls-1"><path class="cls-2" d="M3026.21,379.89a533.19,533.19,0,0,0-121.36-170.32,558.39,558.39,0,0,0-177.3-113,583.38,583.38,0,0,0-399.46-11.2,564.18,564.18,0,0,0-159.35,83.43,546,546,0,0,0-123,127.81A526.83,526.83,0,0,0,2001,375.2a516.75,516.75,0,0,0-44.7,164.8H3068.81A512.77,512.77,0,0,0,3026.21,379.89Z"/></g><path class="cls-3" d="M2239,136.14C1778.17,136.14,1547,540,1180,540H2771S2699.83,136.14,2239,136.14Z"/><g class="cls-1"><path class="cls-2" d="M2777.66,417.08a409.36,409.36,0,0,0-93.16-130.74,428.59,428.59,0,0,0-136.12-86.79A447.81,447.81,0,0,0,2241.72,191a433.06,433.06,0,0,0-122.32,64A419.27,419.27,0,0,0,2025,353.12a403.46,403.46,0,0,0-34.31,60.37A396.35,396.35,0,0,0,1956.33,540h854A393.73,393.73,0,0,0,2777.66,417.08Z"/></g><g class="cls-1"><path class="cls-4" d="M2740.12,422.7a390.48,390.48,0,0,0-88.9-124.77,409.12,409.12,0,0,0-129.89-82.82,427.35,427.35,0,0,0-292.65-8.2A413.18,413.18,0,0,0,2112,268a399.91,399.91,0,0,0-90.12,93.63,385.18,385.18,0,0,0-32.75,57.61A378.11,378.11,0,0,0,1956.33,540h815A375.33,375.33,0,0,0,2740.12,422.7Z"/></g><path class="cls-5" d="M2091,334.58V540H405.26S457,13,1179,13c252.59,0,466.12,64.5,637,148.38A1556.12,1556.12,0,0,1,2091,334.58Z"/></svg>