<svg id="Layer_1" data-name="Layer 1" xmlns="http://www.w3.org/2000/svg" viewBox="0 0 3840 1080"><defs><style>.cls-1,.cls-3,.cls-4,.cls-5,.cls-6{opacity:0.8;}.cls-2{fill:#2eb77c;}.cls-3{fill:#09a6a4;}.cls-4{fill:#ef4423;}.cls-5{fill:#c13c7e;}.cls-6{fill:#ede941;}</style></defs><g class="cls-1"><path class="cls-2" d="M1732,1080c136.71,54.61,226.31,136.32,324,243.33,90.81,99.45,161.54,219.19,210.24,355.9C2317.84,1824,2344,1985.78,2344,2160h480c0-229.25-35.52-445.2-105.57-641.85C2660.58,1355.78,2571.49,1208.83,2470,1080Z"/></g><path class="cls-3" d="M1429.89,214.91C763,141.29,231.2,80.89,0,54.49V439.17c250.53,28.56,759.34,86.24,1388,155.64a2327.49,2327.49,0,0,0,255.1,14.24,2101.3,2101.3,0,0,0,282.68-18.74C2340.59,533.94,2717.06,321.73,2981.55,0H2421.73a1269.15,1269.15,0,0,1-547.46,211.59C1733.11,230.76,1583.6,231.88,1429.89,214.91Z"/><path class="cls-3" d="M1008.89,214.91C342,141.29,231.2,80.89,0,54.49V439.17c250.53,28.56,338.34,86.24,967,155.64a2327.49,2327.49,0,0,0,255.1,14.24,2101.3,2101.3,0,0,0,282.68-18.74C1919.59,533.94,2296.06,321.73,2560.55,0H2000.73a1269.15,1269.15,0,0,1-547.46,211.59C1312.11,230.76,1162.6,231.88,1008.89,214.91Z"/><path class="cls-4" d="M3543.25,1080H1370c46.7-62.24,119.8-147.86,220.92-233.11,106.67-89.93,223.9-162.11,348.54-214.63,2.52-1.07,5-2.12,7.57-3.17,160.05-66.26,331.51-99.86,509.6-99.86q64.7,0,128.16,5.91a1310.85,1310.85,0,0,1,381.44,94c127.47,52.78,247.28,126,356.11,217.8C3423.45,932.14,3496.55,1017.76,3543.25,1080Z"/><path class="cls-5" d="M2888.69,1080H2348.18q-15.64-32-32-62c-58.34-107.15-123.12-194.93-193.56-262.1-57.39-54.73-117.89-95.62-183.19-123.62a555.81,555.81,0,0,0-90.52-29.9c-94-22.44-199.93-21.87-314.74,1.7-103.4,21.23-214.29,61-329.58,118.16C1113,767.64,1020,823.29,928.28,887.61,851.6,941.36,795.55,987.45,769,1010.14c-27.57,23.53-55,46.44-81.46,68.1l-2.15,1.76H0v-74.31L376.41,697.85c23.84-19.5,48.59-40.19,73.56-61.5,74.35-63.45,275.45-225,536.32-354.37,153.17-76,304.26-129.55,449.09-159.28,185.67-38.12,363.18-37.55,527.59,1.67,185.38,44.23,353.19,137.05,498.78,275.88a1349.06,1349.06,0,0,1,123,134.89q45.25,56.67,86.78,120.08c63.52,97,121.69,208,173,329.94Z"/><path class="cls-6" d="M1626.36,1080c151.26,0,273.89-114.17,273.89-255s-122.63-255-273.89-255-273.9,114.17-273.9,255,122.63,255,273.9,255"/><path class="cls-6" d="M1673.68,970.55c125.13,0,226.57-94.45,226.57-210.94s-101.44-210.94-226.57-210.94-226.57,94.44-226.57,210.94,101.44,210.94,226.57,210.94"/></svg>